<svg width="30" height="30" viewBox="0 0 30 30" fill="none" xmlns="http://www.w3.org/2000/svg">
<path d="M8.50506 14.4096L9.03539 14.9399L8.50506 14.4096ZM6 17.9522H5.25H6ZM12.0478 24V24.75V24ZM14.4096 8.50506L13.8792 7.97473L14.4096 8.50506ZM16.241 20.8444C16.5339 21.1373 17.0088 21.1373 17.3017 20.8444C17.5946 20.5515 17.5946 20.0766 17.3017 19.7837L16.241 20.8444ZM10.2163 12.6983C9.9234 12.4054 9.44852 12.4054 9.15563 12.6983C8.86274 12.9912 8.86274 13.4661 9.15563 13.759L10.2163 12.6983ZM20.9646 15.0601L15.0601 20.9646L16.1208 22.0253L22.0253 16.1208L20.9646 15.0601ZM9.03539 14.9399L14.9399 9.03539L13.8792 7.97473L7.97473 13.8792L9.03539 14.9399ZM9.03539 20.9646C8.18538 20.1146 7.60235 19.5293 7.22253 19.0315C6.85592 18.551 6.75 18.2411 6.75 17.9522H5.25C5.25 18.701 5.56159 19.3274 6.03 19.9414C6.48521 20.538 7.1547 21.2052 7.97473 22.0253L9.03539 20.9646ZM7.97473 13.8792C7.1547 14.6993 6.48521 15.3665 6.03 15.9631C5.56159 16.577 5.25 17.2035 5.25 17.9522H6.75C6.75 17.6633 6.85592 17.3535 7.22253 16.873C7.60235 16.3752 8.18538 15.7899 9.03539 14.9399L7.97473 13.8792ZM15.0601 20.9646C14.2101 21.8146 13.6248 22.3977 13.127 22.7775C12.6465 23.1441 12.3367 23.25 12.0478 23.25V24.75C12.7965 24.75 13.423 24.4384 14.0369 23.97C14.6335 23.5148 15.3008 22.8453 16.1208 22.0253L15.0601 20.9646ZM7.97473 22.0253C8.79476 22.8453 9.46201 23.5148 10.0586 23.97C10.6726 24.4384 11.299 24.75 12.0478 24.75V23.25C11.7589 23.25 11.449 23.1441 10.9685 22.7775C10.4707 22.3977 9.88541 21.8146 9.03539 20.9646L7.97473 22.0253ZM20.9646 9.03539C21.8146 9.88541 22.3977 10.4707 22.7775 10.9685C23.1441 11.449 23.25 11.7589 23.25 12.0478H24.75C24.75 11.299 24.4384 10.6726 23.97 10.0586C23.5148 9.46201 22.8453 8.79476 22.0253 7.97473L20.9646 9.03539ZM22.0253 16.1208C22.8453 15.3008 23.5148 14.6335 23.97 14.0369C24.4384 13.423 24.75 12.7965 24.75 12.0478H23.25C23.25 12.3367 23.1441 12.6465 22.7775 13.127C22.3977 13.6248 21.8146 14.2101 20.9646 15.0601L22.0253 16.1208ZM22.0253 7.97473C21.2052 7.1547 20.538 6.48521 19.9414 6.03C19.3274 5.56159 18.701 5.25 17.9522 5.25V6.75C18.2411 6.75 18.551 6.85592 19.0315 7.22253C19.5293 7.60235 20.1146 8.18538 20.9646 9.03539L22.0253 7.97473ZM14.9399 9.03539C15.7899 8.18538 16.3752 7.60235 16.873 7.22253C17.3535 6.85592 17.6633 6.75 17.9522 6.75V5.25C17.2035 5.25 16.577 5.56159 15.9631 6.03C15.3665 6.48521 14.6993 7.1547 13.8792 7.97473L14.9399 9.03539ZM17.3017 19.7837L10.2163 12.6983L9.15563 13.759L16.241 20.8444L17.3017 19.7837Z" fill="#1C274C"/>
<path d="M12 24H24" stroke="#1C274C" stroke-width="1.5" stroke-linecap="round"/>
</svg>
