<svg width="30" height="30" viewBox="0 0 30 30" fill="none" xmlns="http://www.w3.org/2000/svg">
<path d="M17.3601 7.07866L18.2869 6.15178C19.8226 4.61607 22.3125 4.61607 23.8482 6.15178C25.3839 7.68748 25.3839 10.1774 23.8482 11.7131L22.9213 12.6399M17.3601 7.07866C17.3601 7.07866 17.4759 9.04828 19.2138 10.7862C20.9517 12.5241 22.9213 12.6399 22.9213 12.6399M17.3601 7.07866L8.83882 15.5999C8.26166 16.1771 7.97308 16.4656 7.7249 16.7838C7.43213 17.1592 7.18114 17.5653 6.97634 17.995C6.80273 18.3593 6.67368 18.7465 6.41556 19.5208L5.32181 22.8021M22.9213 12.6399L14.4001 21.1612C13.8229 21.7383 13.5344 22.0269 13.2162 22.2751C12.8408 22.5679 12.4347 22.8189 12.005 23.0237C11.6407 23.1973 11.2535 23.3263 10.4792 23.5844L7.19792 24.6782M7.19792 24.6782L6.39584 24.9456C6.01478 25.0726 5.59466 24.9734 5.31063 24.6894C5.0266 24.4053 4.92743 23.9852 5.05445 23.6042L5.32181 22.8021M7.19792 24.6782L5.32181 22.8021" stroke="#1C274C" stroke-width="1.5"/>
</svg>
