<svg width="30" height="30" viewBox="0 0 30 30" fill="none" xmlns="http://www.w3.org/2000/svg">
<path d="M6.46447 23.5355C7.92893 25 10.286 25 15 25C19.714 25 22.0711 25 23.5355 23.5355C25 22.0711 25 19.714 25 15C25 14.6585 25 14.4878 24.9848 14.3142C24.9142 13.5049 24.586 12.7126 24.0637 12.0903C23.9516 11.9569 23.828 11.8332 23.5806 11.5858L18.4142 6.41944C18.1668 6.17206 18.0431 6.04835 17.9097 5.93631C17.2874 5.414 16.4951 5.08581 15.6858 5.01515C15.5122 5 15.3415 5 15 5C10.286 5 7.92893 5 6.46447 6.46447C5 7.92893 5 10.286 5 15C5 19.714 5 22.0711 6.46447 23.5355Z" stroke="#1C274C" stroke-width="1.5"/>
<path d="M20 25V24C20 22.1144 20 21.1716 19.4142 20.5858C18.8284 20 17.8856 20 16 20H14C12.1144 20 11.1716 20 10.5858 20.5858C10 21.1716 10 22.1144 10 24V25" stroke="#1C274C" stroke-width="1.5"/>
<path d="M10 11H16" stroke="#1C274C" stroke-width="1.5" stroke-linecap="round"/>
</svg>
